mtllib mirror_room.mtl

v -2.0 0.0 -2.0
v  2.0 0.0 -2.0
v  2.0 0.0  2.0
v -2.0 0.0  2.0
v -2.0 2.4 -2.0
v  2.0 2.4 -2.0
v  2.0 2.4  2.0
v -2.0 2.4  2.0

usemtl white_floor
f 1 2 3 4
f 5 8 7 6

usemtl matte_red
f 1 5 6 2

usemtl matte_blue
f 2 6 7 3
f 4 8 5 1

usemtl mirror
f 3 7 8 4

v -0.55 0.0 -0.25
v  0.55 0.0 -0.25
v  0.55 0.0  0.85
v -0.55 0.0  0.85
v -0.55 1.10 -0.25
v  0.55 1.10 -0.25
v  0.55 1.10  0.85
v -0.55 1.10  0.85

usemtl gold
f 9 10 11 12
f 13 16 15 14
f 9 13 14 10
f 10 14 15 11
f 11 15 16 12
f 12 16 13 9
